<?xml version="1.0" encoding="utf-8"?>
<!-- Generator: Adobe Illustrator 23.0.1, SVG Export Plug-In . SVG Version: 6.00 Build 0)  -->
<svg version="1.1" id="Layer_1" xmlns="http://www.w3.org/2000/svg" xmlns:xlink="http://www.w3.org/1999/xlink" x="0px" y="0px"
	 viewBox="0 0 15.7 15.7" style="enable-background:new 0 0 15.7 15.7;" xml:space="preserve">
<style type="text/css">
	.st0{fill:#989898;}
	.st1{fill:#FFFFFF;}
</style>
<g>
	<path class="st0" d="M4,15.2c-1.9,0-3.5-1.6-3.5-3.5V4c0-1.9,1.6-3.5,3.5-3.5h7.7c1.9,0,3.5,1.6,3.5,3.5v7.7c0,1.9-1.6,3.5-3.5,3.5
		H4z"/>
	<path class="st0" d="M11.7,1c1.7,0,3,1.3,3,3v7.7c0,1.7-1.3,3-3,3H4c-1.7,0-3-1.3-3-3V4c0-1.7,1.3-3,3-3H11.7 M11.7,0H4
		C1.8,0,0,1.8,0,4v7.7c0,2.2,1.8,4,4,4h7.7c2.2,0,4-1.8,4-4V4C15.7,1.8,13.9,0,11.7,0L11.7,0z"/>
</g>
<g>
	<polygon class="st1" points="11.7,3.2 6.3,9.3 4.3,7.3 2.6,9 4.7,11.1 6.4,12.9 13.4,5 	"/>
</g>
</svg>
