<?xml version="1.0" encoding="utf-8"?>
<!-- Generator: Adobe Illustrator 23.0.1, SVG Export Plug-In . SVG Version: 6.00 Build 0)  -->
<svg version="1.1" id="Layer_1" xmlns="http://www.w3.org/2000/svg" xmlns:xlink="http://www.w3.org/1999/xlink" x="0px" y="0px"
	 viewBox="0 0 147.1 20.2" style="enable-background:new 0 0 147.1 20.2;" xml:space="preserve">
<style type="text/css">
	.st0{fill:#888888;}
</style>
<g>
	<g>
		<path class="st0" d="M13.7,17.1V20H0V0.1h13.4V3H3.3v5.5H12v2.7H3.3v5.9H13.7z"/>
		<path class="st0" d="M16.3,20V4.4h6.9c0.7,0,1.4,0.1,2,0.4c0.6,0.3,1.1,0.7,1.6,1.2c0.4,0.5,0.8,1.1,1,1.7
			c0.2,0.6,0.4,1.2,0.4,1.9c0,0.7-0.1,1.3-0.3,1.9c-0.2,0.6-0.6,1.1-1,1.6c-0.4,0.5-0.9,0.8-1.5,1l3.6,5.9h-3.3l-3.2-5.3h-3.1V20
			H16.3z M19.3,12.2h3.9c0.4,0,0.7-0.1,1-0.4c0.3-0.2,0.5-0.5,0.7-0.9c0.2-0.4,0.3-0.8,0.3-1.3c0-0.5-0.1-0.9-0.3-1.3
			c-0.2-0.4-0.5-0.7-0.8-0.9C23.8,7.1,23.4,7,23,7h-3.8V12.2z"/>
		<path class="st0" d="M30.9,20V4.4h2.9V20H30.9z"/>
		<path class="st0" d="M36.2,12.1c0-1,0.2-1.9,0.5-2.8c0.3-0.9,0.8-1.7,1.5-2.5C38.9,6,39.7,5.4,40.7,5c1-0.4,2-0.7,3.2-0.7
			c1.4,0,2.7,0.3,3.7,0.9c1,0.6,1.8,1.5,2.3,2.5l-2.3,1.5c-0.3-0.6-0.6-1.1-1-1.4s-0.9-0.6-1.4-0.7s-1-0.2-1.5-0.2
			c-0.8,0-1.4,0.2-2,0.5s-1,0.7-1.4,1.2c-0.4,0.5-0.7,1.1-0.9,1.7c-0.2,0.6-0.3,1.3-0.3,1.9c0,0.7,0.1,1.4,0.3,2
			c0.2,0.6,0.5,1.2,1,1.7c0.4,0.5,0.9,0.9,1.5,1.2c0.6,0.3,1.2,0.4,1.9,0.4c0.5,0,1-0.1,1.5-0.2c0.5-0.2,1-0.4,1.4-0.8
			c0.4-0.4,0.8-0.8,1-1.4l2.4,1.4c-0.3,0.8-0.8,1.4-1.5,2s-1.5,1-2.3,1.2c-0.9,0.3-1.7,0.4-2.6,0.4c-1.1,0-2.1-0.2-3-0.7
			c-0.9-0.5-1.7-1.1-2.4-1.8c-0.7-0.8-1.2-1.6-1.6-2.6C36.4,14,36.2,13.1,36.2,12.1z"/>
		<path class="st0" d="M67.6,20.2c-1.3,0-2.5-0.3-3.7-0.8c-1.1-0.5-2.1-1.3-3-2.2c-0.9-0.9-1.5-2-2-3.2c-0.5-1.2-0.7-2.5-0.7-3.9
			c0-1.4,0.2-2.6,0.7-3.9s1.2-2.3,2-3.2c0.8-0.9,1.9-1.6,3-2.2C65.2,0.3,66.4,0,67.8,0c1.9,0,3.5,0.4,4.8,1.2
			C73.9,2,74.9,3,75.5,4.3L73,6.2c-0.5-1.1-1.3-1.9-2.2-2.4c-0.9-0.5-2-0.8-3.1-0.8c-0.9,0-1.7,0.2-2.5,0.6
			c-0.8,0.4-1.4,0.9-1.9,1.6c-0.5,0.7-1,1.4-1.2,2.3c-0.3,0.9-0.4,1.8-0.4,2.7c0,1,0.2,1.9,0.5,2.8c0.3,0.9,0.8,1.6,1.3,2.3
			c0.6,0.6,1.2,1.2,2,1.5c0.8,0.4,1.6,0.6,2.5,0.6c1,0,2.1-0.3,3-0.8c1-0.5,1.9-1.4,2.7-2.5v3.3C72,19.2,70,20.2,67.6,20.2z
			 M73.4,12.4h-4.1V9.9h6.9V20h-2.7V12.4z"/>
		<path class="st0" d="M90,17.4V20H79.1V4.4h10.6V7h-7.7v3.9h6.6v2.4h-6.6v4.2H90z"/>
		<path class="st0" d="M92.4,20V4.4h6.9c0.7,0,1.4,0.1,2,0.4c0.6,0.3,1.1,0.7,1.6,1.2c0.4,0.5,0.8,1.1,1,1.7
			c0.2,0.6,0.4,1.2,0.4,1.9c0,0.7-0.1,1.3-0.3,1.9c-0.2,0.6-0.6,1.1-1,1.6c-0.4,0.5-0.9,0.8-1.5,1l3.6,5.9h-3.3l-3.2-5.3h-3.1V20
			H92.4z M95.3,12.2h3.9c0.4,0,0.7-0.1,1-0.4c0.3-0.2,0.5-0.5,0.7-0.9s0.3-0.8,0.3-1.3c0-0.5-0.1-0.9-0.3-1.3s-0.5-0.7-0.8-0.9
			C99.8,7.1,99.5,7,99.1,7h-3.8V12.2z"/>
		<path class="st0" d="M107,20V4.4h5.7c1.7,0,3.1,0.3,4.3,1c1.1,0.7,2,1.6,2.6,2.8s0.9,2.5,0.9,3.9c0,1.6-0.3,3-0.9,4.1
			c-0.6,1.2-1.5,2.1-2.7,2.7c-1.2,0.6-2.5,1-4.1,1H107z M117.4,12.2c0-1-0.2-1.9-0.6-2.7c-0.4-0.8-0.9-1.4-1.6-1.8
			c-0.7-0.4-1.6-0.7-2.6-0.7h-2.7v10.5h2.7c1,0,1.9-0.2,2.6-0.7s1.2-1.1,1.6-1.9C117.2,14.1,117.4,13.2,117.4,12.2z"/>
		<path class="st0" d="M133.6,17.4V20h-10.8V4.4h10.6V7h-7.7v3.9h6.6v2.4h-6.6v4.2H133.6z"/>
		<path class="st0" d="M145.3,8.4c-0.1-0.1-0.3-0.2-0.6-0.4c-0.3-0.2-0.6-0.4-1-0.5c-0.4-0.2-0.8-0.3-1.3-0.4
			c-0.4-0.1-0.9-0.2-1.4-0.2c-0.8,0-1.5,0.2-1.9,0.5c-0.4,0.3-0.7,0.8-0.7,1.3c0,0.4,0.1,0.8,0.4,1.1s0.7,0.5,1.2,0.6
			c0.5,0.2,1.2,0.4,2,0.6c1,0.3,1.9,0.6,2.7,0.9c0.8,0.4,1.3,0.8,1.7,1.4s0.6,1.3,0.6,2.3c0,0.8-0.2,1.5-0.5,2.1s-0.7,1.1-1.3,1.4
			c-0.5,0.4-1.2,0.6-1.8,0.8c-0.7,0.2-1.4,0.3-2.2,0.3c-0.8,0-1.6-0.1-2.3-0.2c-0.8-0.2-1.5-0.4-2.2-0.7s-1.4-0.7-2-1.1l1.3-2.5
			c0.1,0.1,0.4,0.3,0.7,0.5s0.7,0.4,1.2,0.6c0.5,0.2,1,0.4,1.6,0.5c0.6,0.1,1.1,0.2,1.7,0.2c0.9,0,1.5-0.1,1.9-0.4
			c0.4-0.3,0.7-0.7,0.7-1.2c0-0.5-0.2-0.9-0.5-1.1c-0.3-0.3-0.8-0.5-1.4-0.7c-0.6-0.2-1.3-0.4-2.2-0.6c-1-0.3-1.8-0.6-2.5-0.9
			c-0.7-0.4-1.2-0.8-1.5-1.3c-0.3-0.5-0.5-1.2-0.5-2c0-1.1,0.3-1.9,0.8-2.7c0.5-0.7,1.2-1.3,2.1-1.6c0.9-0.4,1.8-0.5,2.9-0.5
			c0.7,0,1.4,0.1,2.1,0.2c0.6,0.2,1.3,0.4,1.8,0.6s1.1,0.5,1.5,0.9L145.3,8.4z"/>
	</g>
</g>
</svg>
