<?xml version="1.0" encoding="utf-8"?>
<!-- Generator: Adobe Illustrator 23.0.1, SVG Export Plug-In . SVG Version: 6.00 Build 0)  -->
<svg version="1.1" id="Layer_1" xmlns="http://www.w3.org/2000/svg" xmlns:xlink="http://www.w3.org/1999/xlink" x="0px" y="0px"
	 viewBox="0 0 245.2 245.2" style="enable-background:new 0 0 245.2 245.2;" xml:space="preserve">
<style type="text/css">
	.st0{fill:#FFFFFF;}
	.st1{fill:#444545;}
</style>
<g>
	<circle class="st0" cx="122.6" cy="122.6" r="122.6"/>
</g>
<g>
	<path class="st1" d="M49.4,73.9h1.5l1.7,4.4l1.7-4.4h1.5l-2.2,5.5l2.2,5.3l4.3-10.9h1.8l-5.3,12.7h-1.4l-2.5-6l-2.5,6h-1.4
		l-5.3-12.7h1.7l4.3,10.9l2.2-5.3L49.4,73.9z"/>
	<path class="st1" d="M61.6,83.8c0-0.6,0.2-1.1,0.5-1.5c0.3-0.4,0.8-0.8,1.4-1c0.6-0.2,1.3-0.4,2.1-0.4c0.4,0,0.9,0,1.3,0.1
		c0.5,0.1,0.9,0.2,1.2,0.3v-0.7c0-0.7-0.2-1.3-0.6-1.7c-0.4-0.4-1-0.6-1.8-0.6c-0.5,0-1,0.1-1.5,0.3c-0.5,0.2-1,0.5-1.5,0.8
		l-0.6-1.1c0.6-0.4,1.2-0.7,1.8-0.9c0.6-0.2,1.2-0.3,1.9-0.3c1.2,0,2.1,0.3,2.8,1c0.7,0.7,1,1.6,1,2.7v3.9c0,0.2,0,0.3,0.1,0.4
		c0.1,0.1,0.2,0.1,0.4,0.2v1.2c-0.2,0-0.3,0-0.4,0.1s-0.2,0-0.3,0c-0.4,0-0.6-0.1-0.8-0.3c-0.2-0.2-0.3-0.4-0.3-0.6l0-0.6
		c-0.4,0.5-0.9,0.9-1.6,1.2s-1.3,0.4-2,0.4c-0.6,0-1.2-0.1-1.7-0.4c-0.5-0.3-0.9-0.6-1.1-1C61.7,84.9,61.6,84.4,61.6,83.8z
		 M67.6,84.5c0.1-0.2,0.3-0.3,0.3-0.5c0.1-0.2,0.1-0.3,0.1-0.4v-1.2c-0.4-0.1-0.8-0.3-1.2-0.3S66.1,82,65.7,82
		c-0.8,0-1.4,0.2-1.9,0.5c-0.5,0.3-0.7,0.7-0.7,1.3c0,0.3,0.1,0.6,0.2,0.9s0.4,0.5,0.7,0.7c0.3,0.2,0.7,0.3,1.2,0.3
		c0.5,0,1-0.1,1.4-0.3C67,85,67.4,84.8,67.6,84.5z"/>
	<path class="st1" d="M80.3,86.5h-1.6v-5.2c0-1-0.2-1.7-0.5-2.2s-0.8-0.7-1.4-0.7c-0.4,0-0.9,0.1-1.3,0.3c-0.4,0.2-0.8,0.5-1.1,0.9
		c-0.3,0.4-0.6,0.8-0.7,1.2v5.6h-1.6v-9.3h1.4v2c0.3-0.4,0.6-0.8,1-1.1c0.4-0.3,0.8-0.6,1.3-0.7s1-0.3,1.6-0.3c0.5,0,1,0.1,1.4,0.3
		s0.7,0.5,0.9,0.8s0.4,0.8,0.4,1.2s0.1,1,0.1,1.5V86.5z"/>
	<path class="st1" d="M87.5,86.1c-0.1,0.1-0.3,0.1-0.5,0.2c-0.2,0.1-0.5,0.2-0.8,0.3c-0.3,0.1-0.6,0.1-1,0.1c-0.4,0-0.7-0.1-1.1-0.2
		c-0.3-0.1-0.6-0.4-0.8-0.6c-0.2-0.3-0.3-0.7-0.3-1.1v-6.3h-1.3v-1.2h1.3v-3.1h1.6v3.1h2.1v1.2h-2.1v5.8c0,0.3,0.1,0.6,0.3,0.7
		s0.4,0.2,0.7,0.2c0.3,0,0.6-0.1,0.9-0.2s0.4-0.2,0.5-0.2L87.5,86.1z"/>
	<path class="st1" d="M98.4,86.1c-0.1,0.1-0.3,0.1-0.5,0.2c-0.2,0.1-0.5,0.2-0.8,0.3c-0.3,0.1-0.6,0.1-1,0.1c-0.4,0-0.7-0.1-1.1-0.2
		c-0.3-0.1-0.6-0.4-0.8-0.6c-0.2-0.3-0.3-0.7-0.3-1.1v-6.3h-1.3v-1.2H94v-3.1h1.6v3.1h2.1v1.2h-2.1v5.8c0,0.3,0.1,0.6,0.3,0.7
		s0.4,0.2,0.7,0.2c0.3,0,0.6-0.1,0.9-0.2s0.4-0.2,0.5-0.2L98.4,86.1z"/>
	<path class="st1" d="M103.8,86.7c-0.7,0-1.3-0.1-1.9-0.4s-1.1-0.6-1.5-1c-0.4-0.4-0.7-1-1-1.5c-0.2-0.6-0.3-1.2-0.3-1.8
		c0-0.7,0.1-1.3,0.3-1.9c0.2-0.6,0.5-1.1,1-1.5c0.4-0.4,0.9-0.8,1.5-1c0.6-0.3,1.2-0.4,1.9-0.4c0.7,0,1.3,0.1,1.9,0.4
		c0.6,0.3,1.1,0.6,1.5,1s0.8,1,1,1.5c0.2,0.6,0.3,1.2,0.3,1.9c0,0.6-0.1,1.3-0.3,1.8c-0.2,0.6-0.5,1.1-1,1.5c-0.4,0.4-0.9,0.8-1.5,1
		C105.2,86.6,104.5,86.7,103.8,86.7z M100.7,81.9c0,0.6,0.1,1.2,0.4,1.7c0.3,0.5,0.7,0.9,1.1,1.2c0.5,0.3,1,0.5,1.6,0.5
		s1.1-0.2,1.6-0.5c0.5-0.3,0.8-0.7,1.1-1.2c0.3-0.5,0.4-1.1,0.4-1.7s-0.1-1.2-0.4-1.7c-0.3-0.5-0.7-0.9-1.1-1.2
		c-0.5-0.3-1-0.5-1.6-0.5s-1.1,0.2-1.6,0.5s-0.8,0.7-1.1,1.2C100.9,80.7,100.7,81.3,100.7,81.9z"/>
	<path class="st1" d="M118.2,86.7c-0.8,0-1.5-0.1-2.2-0.4c-0.7-0.3-1.3-0.6-1.8-1.2l0.6-1.1c0.5,0.5,1.1,0.9,1.6,1.1
		c0.5,0.2,1.1,0.3,1.6,0.3c0.6,0,1.2-0.1,1.6-0.4c0.4-0.2,0.6-0.6,0.6-1.1c0-0.3-0.1-0.6-0.3-0.8s-0.5-0.3-0.9-0.4
		c-0.4-0.1-0.8-0.2-1.4-0.4c-0.6-0.2-1.2-0.4-1.6-0.6c-0.4-0.2-0.8-0.5-1-0.8c-0.2-0.3-0.3-0.7-0.3-1.2c0-0.6,0.2-1.1,0.5-1.5
		s0.7-0.7,1.3-0.9c0.5-0.2,1.2-0.3,1.9-0.3s1.3,0.1,1.9,0.3s1,0.5,1.5,1l-0.7,1.1c-0.4-0.4-0.8-0.7-1.2-0.9
		c-0.4-0.2-0.9-0.3-1.5-0.3c-0.3,0-0.6,0-0.9,0.1c-0.3,0.1-0.6,0.2-0.8,0.4s-0.3,0.5-0.3,0.8c0,0.3,0.1,0.5,0.2,0.7s0.4,0.3,0.7,0.4
		c0.3,0.1,0.7,0.2,1.2,0.4c0.7,0.2,1.3,0.4,1.8,0.6c0.5,0.2,0.9,0.5,1.2,0.8c0.3,0.3,0.4,0.8,0.4,1.3c0,0.9-0.3,1.6-1,2.1
		C120.2,86.5,119.3,86.7,118.2,86.7z"/>
	<path class="st1" d="M127.9,86.7c-0.7,0-1.3-0.1-1.9-0.4s-1.1-0.6-1.5-1s-0.8-1-1-1.5c-0.2-0.6-0.3-1.2-0.3-1.9
		c0-0.9,0.2-1.7,0.6-2.4s1-1.3,1.7-1.7c0.7-0.4,1.6-0.7,2.5-0.7c0.9,0,1.8,0.2,2.5,0.7s1.2,1,1.6,1.7c0.4,0.7,0.6,1.5,0.6,2.3
		c0,0.1,0,0.2,0,0.3c0,0.1,0,0.2,0,0.3h-7.8c0,0.6,0.2,1.1,0.5,1.6c0.3,0.5,0.7,0.8,1.1,1.1c0.5,0.3,1,0.4,1.5,0.4
		c0.6,0,1.1-0.1,1.6-0.4c0.5-0.3,0.9-0.7,1-1.1l1.4,0.4c-0.2,0.5-0.5,0.9-0.9,1.2s-0.9,0.6-1.4,0.8
		C129.1,86.6,128.5,86.7,127.9,86.7z M124.7,81.3h6.4c0-0.6-0.2-1.1-0.5-1.6c-0.3-0.5-0.7-0.8-1.1-1.1c-0.5-0.3-1-0.4-1.5-0.4
		c-0.6,0-1.1,0.1-1.5,0.4c-0.5,0.3-0.8,0.6-1.1,1.1C125,80.2,124.8,80.7,124.7,81.3z"/>
	<path class="st1" d="M138.5,86.7c-0.7,0-1.3-0.1-1.9-0.4c-0.6-0.3-1.1-0.6-1.5-1s-0.8-1-1-1.5s-0.3-1.2-0.3-1.9
		c0-0.9,0.2-1.7,0.6-2.4s1-1.3,1.7-1.7c0.7-0.4,1.6-0.7,2.5-0.7c0.9,0,1.8,0.2,2.5,0.7s1.2,1,1.6,1.7c0.4,0.7,0.6,1.5,0.6,2.3
		c0,0.1,0,0.2,0,0.3c0,0.1,0,0.2,0,0.3h-7.8c0,0.6,0.2,1.1,0.5,1.6s0.7,0.8,1.1,1.1c0.5,0.3,1,0.4,1.5,0.4c0.6,0,1.1-0.1,1.6-0.4
		c0.5-0.3,0.9-0.7,1-1.1l1.4,0.4c-0.2,0.5-0.5,0.9-0.9,1.2s-0.9,0.6-1.4,0.8C139.7,86.6,139.1,86.7,138.5,86.7z M135.3,81.3h6.4
		c0-0.6-0.2-1.1-0.5-1.6c-0.3-0.5-0.7-0.8-1.1-1.1c-0.5-0.3-1-0.4-1.5-0.4c-0.5,0-1.1,0.1-1.5,0.4c-0.5,0.3-0.8,0.6-1.1,1.1
		C135.5,80.2,135.4,80.7,135.3,81.3z"/>
	<path class="st1" d="M163.6,86.5H162v-5.2c0-1-0.2-1.7-0.5-2.1s-0.8-0.7-1.4-0.7c-0.6,0-1.2,0.2-1.7,0.7s-0.9,1-1.1,1.8v5.6h-1.6
		v-5.2c0-1-0.2-1.7-0.5-2.2c-0.3-0.5-0.8-0.7-1.4-0.7s-1.2,0.2-1.7,0.7c-0.5,0.4-0.9,1-1.1,1.8v5.6h-1.6v-9.3h1.4v2
		c0.4-0.7,0.9-1.2,1.5-1.6c0.6-0.4,1.3-0.6,2.1-0.6c0.8,0,1.4,0.2,1.9,0.6s0.8,1,0.9,1.6c0.4-0.7,0.9-1.3,1.5-1.7
		c0.6-0.4,1.3-0.6,2-0.6c0.5,0,1,0.1,1.4,0.3c0.4,0.2,0.7,0.5,0.9,0.8c0.2,0.3,0.4,0.8,0.5,1.2s0.1,1,0.1,1.5V86.5z"/>
	<path class="st1" d="M170.1,86.7c-0.7,0-1.3-0.1-1.9-0.4c-0.6-0.3-1.1-0.6-1.5-1c-0.4-0.4-0.7-1-1-1.5s-0.3-1.2-0.3-1.8
		c0-0.7,0.1-1.3,0.3-1.9s0.5-1.1,1-1.5c0.4-0.4,0.9-0.8,1.5-1s1.2-0.4,1.9-0.4c0.7,0,1.3,0.1,1.9,0.4s1.1,0.6,1.5,1s0.8,1,1,1.5
		c0.2,0.6,0.3,1.2,0.3,1.9c0,0.6-0.1,1.3-0.3,1.8c-0.2,0.6-0.6,1.1-1,1.5s-0.9,0.8-1.5,1C171.5,86.6,170.8,86.7,170.1,86.7z
		 M167,81.9c0,0.6,0.1,1.2,0.4,1.7s0.7,0.9,1.1,1.2c0.5,0.3,1,0.5,1.6,0.5c0.6,0,1.1-0.2,1.6-0.5s0.8-0.7,1.1-1.2
		c0.3-0.5,0.4-1.1,0.4-1.7s-0.1-1.2-0.4-1.7c-0.3-0.5-0.7-0.9-1.1-1.2s-1-0.5-1.6-0.5c-0.6,0-1.1,0.2-1.6,0.5
		c-0.5,0.3-0.8,0.7-1.1,1.2S167,81.3,167,81.9z"/>
	<path class="st1" d="M181.7,78.6c-0.8,0-1.5,0.2-2.1,0.6c-0.6,0.4-1,0.9-1.3,1.6v5.8h-1.6v-9.3h1.5v2.1c0.3-0.6,0.8-1.2,1.3-1.6
		c0.5-0.4,1.1-0.6,1.7-0.7c0.1,0,0.2,0,0.3,0c0.1,0,0.2,0,0.2,0V78.6z"/>
	<path class="st1" d="M187.2,86.7c-0.7,0-1.3-0.1-1.9-0.4s-1.1-0.6-1.5-1s-0.8-1-1-1.5c-0.2-0.6-0.3-1.2-0.3-1.9
		c0-0.9,0.2-1.7,0.6-2.4s1-1.3,1.7-1.7c0.7-0.4,1.6-0.7,2.5-0.7c0.9,0,1.8,0.2,2.5,0.7s1.2,1,1.6,1.7c0.4,0.7,0.6,1.5,0.6,2.3
		c0,0.1,0,0.2,0,0.3c0,0.1,0,0.2,0,0.3h-7.8c0,0.6,0.2,1.1,0.5,1.6c0.3,0.5,0.7,0.8,1.1,1.1c0.5,0.3,1,0.4,1.5,0.4
		c0.6,0,1.1-0.1,1.6-0.4c0.5-0.3,0.9-0.7,1-1.1l1.4,0.4c-0.2,0.5-0.5,0.9-0.9,1.2s-0.9,0.6-1.4,0.8
		C188.4,86.6,187.8,86.7,187.2,86.7z M184,81.3h6.4c0-0.6-0.2-1.1-0.5-1.6c-0.3-0.5-0.7-0.8-1.1-1.1c-0.5-0.3-1-0.4-1.5-0.4
		c-0.6,0-1.1,0.1-1.5,0.4c-0.5,0.3-0.8,0.6-1.1,1.1C184.3,80.2,184.1,80.7,184,81.3z"/>
	<path class="st1" d="M194.7,82.7c0-0.4,0.1-0.8,0.2-1.2s0.3-0.7,0.5-1c0.2-0.3,0.5-0.5,0.9-0.8c0.2-0.1,0.5-0.3,0.7-0.4
		c0.3-0.2,0.6-0.3,0.8-0.5c0.3-0.2,0.5-0.5,0.6-0.7s0.3-0.6,0.3-1c0-0.5-0.1-0.8-0.3-1.1s-0.5-0.5-0.8-0.7c-0.3-0.2-0.7-0.2-1.1-0.2
		c-0.4,0-0.8,0.1-1.1,0.2c-0.3,0.2-0.6,0.4-0.9,0.6c-0.3,0.3-0.5,0.5-0.6,0.9l-1.1-0.7c0.2-0.5,0.5-0.9,0.9-1.3
		c0.4-0.3,0.8-0.6,1.3-0.8c0.5-0.2,1-0.3,1.5-0.3c0.4,0,0.9,0.1,1.3,0.2c0.4,0.1,0.8,0.3,1.1,0.6c0.3,0.3,0.6,0.6,0.8,1.1
		s0.3,0.9,0.3,1.5c0,0.5-0.1,0.8-0.2,1.2c-0.1,0.3-0.3,0.6-0.5,0.8s-0.5,0.4-0.7,0.6c-0.3,0.2-0.6,0.3-0.9,0.5
		c-0.3,0.2-0.6,0.3-0.8,0.5c-0.3,0.2-0.5,0.4-0.7,0.7c-0.2,0.3-0.3,0.7-0.3,1.2H194.7z M194.7,86.5v-2.1h1.3v2.1H194.7z"/>
</g>
<g>
	<path class="st1" d="M32.7,122.4c-1,0-1.9-0.2-2.6-0.5c-0.7-0.4-1.2-0.8-1.7-1.4s-0.7-1.3-0.9-2.1c-0.2-0.8-0.3-1.6-0.3-2.4v-6.4
		h1.6v6.4c0,0.6,0.1,1.2,0.2,1.8c0.1,0.6,0.3,1.1,0.6,1.6c0.3,0.5,0.7,0.8,1.2,1.1c0.5,0.3,1.1,0.4,1.8,0.4c0.7,0,1.4-0.1,1.8-0.4
		c0.5-0.3,0.9-0.7,1.2-1.1c0.3-0.5,0.5-1,0.6-1.6c0.1-0.6,0.2-1.2,0.2-1.8v-6.4h1.6v6.4c0,0.9-0.1,1.7-0.3,2.4s-0.5,1.4-0.9,2
		c-0.4,0.6-1,1-1.7,1.4C34.5,122.3,33.6,122.4,32.7,122.4z"/>
	<path class="st1" d="M43.7,122.5c-0.8,0-1.5-0.1-2.2-0.4c-0.7-0.3-1.3-0.6-1.8-1.2l0.6-1.1c0.5,0.5,1.1,0.9,1.6,1.1
		c0.5,0.2,1.1,0.3,1.6,0.3c0.6,0,1.2-0.1,1.6-0.4c0.4-0.2,0.6-0.6,0.6-1.1c0-0.3-0.1-0.6-0.3-0.8s-0.5-0.3-0.9-0.4
		c-0.4-0.1-0.8-0.2-1.4-0.4c-0.6-0.2-1.2-0.4-1.6-0.6c-0.4-0.2-0.8-0.5-1-0.8c-0.2-0.3-0.3-0.7-0.3-1.2c0-0.6,0.2-1.1,0.5-1.5
		s0.7-0.7,1.3-0.9c0.5-0.2,1.2-0.3,1.9-0.3s1.3,0.1,1.9,0.3s1,0.5,1.5,1l-0.7,1.1c-0.4-0.4-0.8-0.7-1.2-0.9
		c-0.4-0.2-0.9-0.3-1.5-0.3c-0.3,0-0.6,0-0.9,0.1c-0.3,0.1-0.6,0.2-0.8,0.4s-0.3,0.5-0.3,0.8c0,0.3,0.1,0.5,0.2,0.7s0.4,0.3,0.7,0.4
		c0.3,0.1,0.7,0.2,1.2,0.4c0.7,0.2,1.3,0.4,1.8,0.6c0.5,0.2,0.9,0.5,1.2,0.8c0.3,0.3,0.4,0.8,0.4,1.3c0,0.9-0.3,1.6-1,2.1
		C45.6,122.3,44.8,122.5,43.7,122.5z"/>
	<path class="st1" d="M53.3,122.5c-0.7,0-1.3-0.1-1.9-0.4c-0.6-0.3-1.1-0.6-1.5-1s-0.8-1-1-1.5c-0.2-0.6-0.3-1.2-0.3-1.9
		c0-0.9,0.2-1.7,0.6-2.4s1-1.3,1.7-1.7c0.7-0.4,1.6-0.7,2.5-0.7c0.9,0,1.8,0.2,2.5,0.7s1.2,1,1.6,1.7c0.4,0.7,0.6,1.5,0.6,2.3
		c0,0.1,0,0.2,0,0.3c0,0.1,0,0.2,0,0.3h-7.8c0,0.6,0.2,1.1,0.5,1.6c0.3,0.5,0.7,0.8,1.1,1.1s1,0.4,1.5,0.4c0.6,0,1.1-0.1,1.6-0.4
		c0.5-0.3,0.9-0.7,1-1.1l1.4,0.4c-0.2,0.5-0.5,0.9-0.9,1.2s-0.9,0.6-1.4,0.8C54.6,122.4,54,122.5,53.3,122.5z M50.2,117.2h6.4
		c0-0.6-0.2-1.1-0.5-1.6c-0.3-0.5-0.7-0.8-1.1-1.1s-1-0.4-1.5-0.4c-0.5,0-1.1,0.1-1.5,0.4s-0.8,0.6-1.1,1.1
		C50.4,116,50.2,116.6,50.2,117.2z"/>
	<path class="st1" d="M69.2,121.9c-0.1,0.1-0.3,0.1-0.5,0.2c-0.2,0.1-0.5,0.2-0.8,0.3c-0.3,0.1-0.6,0.1-1,0.1
		c-0.4,0-0.7-0.1-1.1-0.2c-0.3-0.1-0.6-0.4-0.8-0.6c-0.2-0.3-0.3-0.7-0.3-1.1v-6.3h-1.3v-1.2h1.3v-3.1h1.6v3.1h2.1v1.2h-2.1v5.8
		c0,0.3,0.1,0.6,0.3,0.7s0.4,0.2,0.7,0.2c0.3,0,0.6-0.1,0.9-0.2s0.4-0.2,0.5-0.2L69.2,121.9z"/>
	<path class="st1" d="M78.8,122.4h-1.6v-5.2c0-0.9-0.2-1.7-0.5-2.1c-0.3-0.5-0.8-0.7-1.5-0.7c-0.4,0-0.8,0.1-1.2,0.3
		s-0.8,0.5-1.1,0.9c-0.3,0.4-0.5,0.8-0.7,1.2v5.6h-1.6v-13.1h1.6v5.8c0.4-0.7,0.9-1.2,1.5-1.6c0.6-0.4,1.3-0.6,2.1-0.6
		c0.6,0,1,0.1,1.4,0.3c0.4,0.2,0.7,0.5,0.9,0.8c0.2,0.4,0.4,0.8,0.5,1.2c0.1,0.5,0.2,1,0.2,1.5V122.4z"/>
	<path class="st1" d="M85.3,122.5c-0.7,0-1.3-0.1-1.9-0.4c-0.6-0.3-1.1-0.6-1.5-1s-0.8-1-1-1.5c-0.2-0.6-0.3-1.2-0.3-1.9
		c0-0.9,0.2-1.7,0.6-2.4s1-1.3,1.7-1.7c0.7-0.4,1.6-0.7,2.5-0.7c0.9,0,1.8,0.2,2.5,0.7s1.2,1,1.6,1.7c0.4,0.7,0.6,1.5,0.6,2.3
		c0,0.1,0,0.2,0,0.3c0,0.1,0,0.2,0,0.3h-7.8c0,0.6,0.2,1.1,0.5,1.6c0.3,0.5,0.7,0.8,1.1,1.1s1,0.4,1.5,0.4c0.6,0,1.1-0.1,1.6-0.4
		c0.5-0.3,0.9-0.7,1-1.1l1.4,0.4c-0.2,0.5-0.5,0.9-0.9,1.2s-0.9,0.6-1.4,0.8C86.6,122.4,86,122.5,85.3,122.5z M82.2,117.2h6.4
		c0-0.6-0.2-1.1-0.5-1.6c-0.3-0.5-0.7-0.8-1.1-1.1s-1-0.4-1.5-0.4c-0.5,0-1.1,0.1-1.5,0.4s-0.8,0.6-1.1,1.1
		C82.4,116,82.2,116.6,82.2,117.2z"/>
	<path class="st1" d="M99.5,122.5c-0.8,0-1.5-0.1-2.2-0.4c-0.7-0.3-1.3-0.6-1.8-1.2l0.6-1.1c0.5,0.5,1.1,0.9,1.6,1.1
		c0.5,0.2,1.1,0.3,1.6,0.3c0.6,0,1.2-0.1,1.6-0.4c0.4-0.2,0.6-0.6,0.6-1.1c0-0.3-0.1-0.6-0.3-0.8s-0.5-0.3-0.9-0.4
		c-0.4-0.1-0.8-0.2-1.4-0.4c-0.6-0.2-1.2-0.4-1.6-0.6c-0.4-0.2-0.8-0.5-1-0.8c-0.2-0.3-0.3-0.7-0.3-1.2c0-0.6,0.2-1.1,0.5-1.5
		s0.7-0.7,1.3-0.9c0.5-0.2,1.2-0.3,1.9-0.3s1.3,0.1,1.9,0.3s1,0.5,1.5,1l-0.7,1.1c-0.4-0.4-0.8-0.7-1.2-0.9
		c-0.4-0.2-0.9-0.3-1.5-0.3c-0.3,0-0.6,0-0.9,0.1c-0.3,0.1-0.6,0.2-0.8,0.4s-0.3,0.5-0.3,0.8c0,0.3,0.1,0.5,0.2,0.7s0.4,0.3,0.7,0.4
		c0.3,0.1,0.7,0.2,1.2,0.4c0.7,0.2,1.3,0.4,1.8,0.6c0.5,0.2,0.9,0.5,1.2,0.8c0.3,0.3,0.4,0.8,0.4,1.3c0,0.9-0.3,1.6-1,2.1
		C101.5,122.3,100.6,122.5,99.5,122.5z"/>
	<path class="st1" d="M109.2,122.5c-0.7,0-1.3-0.1-1.9-0.4s-1.1-0.6-1.5-1c-0.4-0.4-0.7-1-1-1.5c-0.2-0.6-0.3-1.2-0.3-1.8
		c0-0.7,0.1-1.3,0.3-1.9c0.2-0.6,0.5-1.1,1-1.5c0.4-0.4,0.9-0.8,1.5-1c0.6-0.3,1.2-0.4,1.9-0.4c0.7,0,1.3,0.1,1.9,0.4
		c0.6,0.3,1.1,0.6,1.5,1s0.8,1,1,1.5c0.2,0.6,0.3,1.2,0.3,1.9c0,0.6-0.1,1.3-0.3,1.8c-0.2,0.6-0.5,1.1-1,1.5c-0.4,0.4-0.9,0.8-1.5,1
		C110.5,122.4,109.9,122.5,109.2,122.5z M106.1,117.7c0,0.6,0.1,1.2,0.4,1.7c0.3,0.5,0.7,0.9,1.1,1.2c0.5,0.3,1,0.5,1.6,0.5
		s1.1-0.2,1.6-0.5c0.5-0.3,0.8-0.7,1.1-1.2c0.3-0.5,0.4-1.1,0.4-1.7s-0.1-1.2-0.4-1.7c-0.3-0.5-0.7-0.9-1.1-1.2
		c-0.5-0.3-1-0.5-1.6-0.5s-1.1,0.2-1.6,0.5s-0.8,0.7-1.1,1.2C106.2,116.5,106.1,117.1,106.1,117.7z"/>
	<path class="st1" d="M120.8,114.4c-0.8,0-1.5,0.2-2.1,0.6c-0.6,0.4-1,0.9-1.3,1.6v5.8h-1.6v-9.3h1.5v2.1c0.3-0.6,0.8-1.2,1.3-1.6
		c0.5-0.4,1.1-0.6,1.7-0.7c0.1,0,0.2,0,0.3,0c0.1,0,0.2,0,0.2,0V114.4z"/>
	<path class="st1" d="M127.2,121.9c-0.1,0.1-0.3,0.1-0.5,0.2c-0.2,0.1-0.5,0.2-0.8,0.3c-0.3,0.1-0.6,0.1-0.9,0.1
		c-0.4,0-0.7-0.1-1.1-0.2c-0.3-0.1-0.6-0.4-0.8-0.6c-0.2-0.3-0.3-0.7-0.3-1.1v-6.3h-1.3v-1.2h1.3v-3.1h1.6v3.1h2.1v1.2h-2.1v5.8
		c0,0.3,0.1,0.6,0.3,0.7s0.4,0.2,0.7,0.2c0.3,0,0.6-0.1,0.9-0.2c0.3-0.1,0.4-0.2,0.5-0.2L127.2,121.9z"/>
	<path class="st1" d="M133.7,122.4v-8.1h-1.3V113h1.3v-0.2c0-0.8,0.1-1.4,0.3-2c0.2-0.6,0.6-1,1-1.3c0.4-0.3,0.9-0.4,1.5-0.4
		c0.4,0,0.7,0.1,1.1,0.2c0.4,0.1,0.7,0.2,1,0.4l-0.4,1.2c-0.2-0.1-0.4-0.2-0.6-0.3c-0.2-0.1-0.5-0.1-0.7-0.1c-0.5,0-0.9,0.2-1.2,0.6
		c-0.3,0.4-0.4,1-0.4,1.7v0.3h2.5v1.2h-2.5v8.1H133.7z"/>
	<path class="st1" d="M139.2,118.6v-5.6h1.6v5.3c0,1,0.2,1.7,0.5,2.1c0.3,0.5,0.8,0.7,1.5,0.7c0.4,0,0.8-0.1,1.2-0.3
		s0.8-0.4,1.1-0.8c0.3-0.3,0.6-0.8,0.8-1.2v-5.8h1.6v7.5c0,0.2,0,0.3,0.1,0.4s0.2,0.1,0.4,0.2v1.2c-0.2,0-0.3,0-0.4,0s-0.2,0-0.3,0
		c-0.3,0-0.6-0.1-0.8-0.3c-0.2-0.2-0.3-0.4-0.3-0.7l0-1.1c-0.4,0.7-1,1.2-1.6,1.6c-0.7,0.4-1.4,0.6-2.2,0.6c-1,0-1.7-0.3-2.2-1
		S139.2,119.9,139.2,118.6z"/>
	<path class="st1" d="M158.2,122.4h-1.6v-5.2c0-1-0.2-1.7-0.5-2.2s-0.8-0.7-1.4-0.7c-0.4,0-0.9,0.1-1.3,0.3
		c-0.4,0.2-0.8,0.5-1.1,0.9c-0.3,0.4-0.6,0.8-0.7,1.2v5.6h-1.6v-9.3h1.4v2c0.3-0.4,0.6-0.8,1-1.1s0.8-0.6,1.3-0.7s1-0.3,1.6-0.3
		c0.5,0,1,0.1,1.4,0.3c0.4,0.2,0.7,0.5,0.9,0.8s0.4,0.8,0.4,1.2s0.1,1,0.1,1.5V122.4z"/>
	<path class="st1" d="M164.8,122.5c-0.7,0-1.3-0.1-1.9-0.4s-1.1-0.6-1.5-1.1c-0.4-0.5-0.8-1-1-1.5c-0.2-0.6-0.3-1.2-0.3-1.9
		c0-0.9,0.2-1.7,0.6-2.4c0.4-0.7,1-1.3,1.7-1.7c0.7-0.4,1.5-0.6,2.5-0.6c0.9,0,1.7,0.2,2.4,0.6c0.7,0.4,1.2,1,1.5,1.7l-1.5,0.5
		c-0.2-0.4-0.6-0.8-1-1c-0.4-0.2-0.9-0.4-1.4-0.4c-0.6,0-1.1,0.1-1.6,0.4c-0.5,0.3-0.8,0.7-1.1,1.2c-0.3,0.5-0.4,1.1-0.4,1.8
		c0,0.7,0.1,1.2,0.4,1.8s0.7,0.9,1.1,1.2c0.5,0.3,1,0.5,1.6,0.5c0.4,0,0.7-0.1,1.1-0.2c0.3-0.1,0.6-0.3,0.9-0.5
		c0.3-0.2,0.4-0.5,0.5-0.7l1.5,0.5c-0.2,0.5-0.5,0.9-0.9,1.2s-0.8,0.6-1.4,0.8C166,122.4,165.4,122.5,164.8,122.5z"/>
	<path class="st1" d="M175.4,121.9c-0.1,0.1-0.3,0.1-0.5,0.2c-0.2,0.1-0.5,0.2-0.8,0.3c-0.3,0.1-0.6,0.1-1,0.1
		c-0.4,0-0.7-0.1-1.1-0.2c-0.3-0.1-0.6-0.4-0.8-0.6s-0.3-0.7-0.3-1.1v-6.3h-1.3v-1.2h1.3v-3.1h1.6v3.1h2.1v1.2h-2.1v5.8
		c0,0.3,0.1,0.6,0.3,0.7s0.4,0.2,0.7,0.2c0.3,0,0.6-0.1,0.9-0.2c0.3-0.1,0.4-0.2,0.5-0.2L175.4,121.9z"/>
	<path class="st1" d="M176.9,111.2v-2h1.6v2H176.9z M176.9,122.4V113h1.6v9.4H176.9z"/>
	<path class="st1" d="M185.1,122.5c-0.7,0-1.3-0.1-1.9-0.4c-0.6-0.3-1.1-0.6-1.5-1c-0.4-0.4-0.7-1-1-1.5s-0.3-1.2-0.3-1.8
		c0-0.7,0.1-1.3,0.3-1.9s0.5-1.1,1-1.5c0.4-0.4,0.9-0.8,1.5-1s1.2-0.4,1.9-0.4c0.7,0,1.3,0.1,1.9,0.4s1.1,0.6,1.5,1s0.8,1,1,1.5
		c0.2,0.6,0.3,1.2,0.3,1.9c0,0.6-0.1,1.3-0.3,1.8c-0.2,0.6-0.6,1.1-1,1.5s-0.9,0.8-1.5,1C186.5,122.4,185.8,122.5,185.1,122.5z
		 M182,117.7c0,0.6,0.1,1.2,0.4,1.7s0.7,0.9,1.1,1.2c0.5,0.3,1,0.5,1.6,0.5c0.6,0,1.1-0.2,1.6-0.5s0.8-0.7,1.1-1.2
		c0.3-0.5,0.4-1.1,0.4-1.7s-0.1-1.2-0.4-1.7c-0.3-0.5-0.7-0.9-1.1-1.2s-1-0.5-1.6-0.5c-0.6,0-1.1,0.2-1.6,0.5
		c-0.5,0.3-0.8,0.7-1.1,1.2S182,117.1,182,117.7z"/>
	<path class="st1" d="M199.9,122.4h-1.6v-5.2c0-1-0.2-1.7-0.5-2.2s-0.8-0.7-1.4-0.7c-0.4,0-0.9,0.1-1.3,0.3s-0.8,0.5-1.1,0.9
		c-0.3,0.4-0.6,0.8-0.7,1.2v5.6h-1.6v-9.3h1.4v2c0.2-0.4,0.6-0.8,1-1.1c0.4-0.3,0.8-0.6,1.3-0.7s1-0.3,1.6-0.3c0.5,0,1,0.1,1.4,0.3
		c0.4,0.2,0.7,0.5,0.9,0.8s0.4,0.8,0.4,1.2s0.1,1,0.1,1.5V122.4z"/>
	<path class="st1" d="M211.7,121.9c-0.1,0.1-0.3,0.1-0.5,0.2c-0.2,0.1-0.5,0.2-0.8,0.3c-0.3,0.1-0.6,0.1-1,0.1
		c-0.4,0-0.7-0.1-1.1-0.2c-0.3-0.1-0.6-0.4-0.8-0.6s-0.3-0.7-0.3-1.1v-6.3H206v-1.2h1.3v-3.1h1.6v3.1h2.1v1.2h-2.1v5.8
		c0,0.3,0.1,0.6,0.3,0.7s0.4,0.2,0.7,0.2c0.3,0,0.6-0.1,0.9-0.2c0.3-0.1,0.4-0.2,0.5-0.2L211.7,121.9z"/>
	<path class="st1" d="M217.1,122.5c-0.7,0-1.3-0.1-1.9-0.4c-0.6-0.3-1.1-0.6-1.5-1c-0.4-0.4-0.7-1-1-1.5s-0.3-1.2-0.3-1.8
		c0-0.7,0.1-1.3,0.3-1.9s0.5-1.1,1-1.5c0.4-0.4,0.9-0.8,1.5-1s1.2-0.4,1.9-0.4c0.7,0,1.3,0.1,1.9,0.4s1.1,0.6,1.5,1s0.8,1,1,1.5
		c0.2,0.6,0.3,1.2,0.3,1.9c0,0.6-0.1,1.3-0.3,1.8c-0.2,0.6-0.6,1.1-1,1.5s-0.9,0.8-1.5,1C218.5,122.4,217.8,122.5,217.1,122.5z
		 M214,117.7c0,0.6,0.1,1.2,0.4,1.7s0.7,0.9,1.1,1.2c0.5,0.3,1,0.5,1.6,0.5c0.6,0,1.1-0.2,1.6-0.5s0.8-0.7,1.1-1.2
		c0.3-0.5,0.4-1.1,0.4-1.7s-0.1-1.2-0.4-1.7c-0.3-0.5-0.7-0.9-1.1-1.2s-1-0.5-1.6-0.5c-0.6,0-1.1,0.2-1.6,0.5
		c-0.5,0.3-0.8,0.7-1.1,1.2S214,117.1,214,117.7z"/>
	<path class="st1" d="M23.3,139.2c0-0.9,0.2-1.7,0.5-2.4s0.9-1.3,1.5-1.8c0.6-0.4,1.4-0.7,2.2-0.7c0.8,0,1.4,0.2,2,0.6
		s1.1,0.9,1.4,1.4v-5.7h1.6v11.3c0,0.2,0,0.3,0.1,0.4s0.2,0.1,0.4,0.2v1.2c-0.3,0-0.5,0.1-0.7,0.1c-0.3,0-0.6-0.1-0.8-0.3
		c-0.2-0.2-0.3-0.5-0.3-0.7v-0.8c-0.4,0.6-0.9,1.1-1.5,1.4c-0.6,0.3-1.3,0.5-1.9,0.5c-0.6,0-1.2-0.1-1.8-0.4s-1-0.6-1.4-1.1
		c-0.4-0.5-0.7-1-0.9-1.5C23.4,140.5,23.3,139.9,23.3,139.2z M31,140.6v-2.7c-0.1-0.4-0.4-0.8-0.7-1.1c-0.3-0.3-0.7-0.6-1.1-0.8
		s-0.8-0.3-1.2-0.3c-0.5,0-0.9,0.1-1.3,0.3c-0.4,0.2-0.7,0.5-1,0.8c-0.3,0.3-0.5,0.7-0.6,1.1c-0.1,0.4-0.2,0.8-0.2,1.3
		c0,0.5,0.1,0.9,0.2,1.3s0.4,0.8,0.7,1.1c0.3,0.3,0.6,0.6,1,0.7c0.4,0.2,0.8,0.3,1.3,0.3c0.3,0,0.6-0.1,0.9-0.2s0.6-0.3,0.9-0.4
		c0.3-0.2,0.5-0.4,0.7-0.7C30.8,141.2,30.9,140.9,31,140.6z"/>
	<path class="st1" d="M35.2,132.7v-2h1.6v2H35.2z M35.2,143.9v-9.4h1.6v9.4H35.2z"/>
	<path class="st1" d="M42.5,144c-0.8,0-1.5-0.1-2.2-0.4c-0.7-0.3-1.3-0.6-1.8-1.2l0.6-1.1c0.5,0.5,1.1,0.9,1.6,1.1
		c0.5,0.2,1.1,0.3,1.6,0.3c0.6,0,1.2-0.1,1.6-0.4c0.4-0.2,0.6-0.6,0.6-1.1c0-0.3-0.1-0.6-0.3-0.8s-0.5-0.3-0.9-0.4
		c-0.4-0.1-0.8-0.2-1.4-0.4c-0.6-0.2-1.2-0.4-1.6-0.6c-0.4-0.2-0.8-0.5-1-0.8c-0.2-0.3-0.3-0.7-0.3-1.2c0-0.6,0.2-1.1,0.5-1.5
		s0.7-0.7,1.3-0.9c0.5-0.2,1.2-0.3,1.9-0.3s1.3,0.1,1.9,0.3s1,0.5,1.5,1l-0.7,1.1c-0.4-0.4-0.8-0.7-1.2-0.9
		c-0.4-0.2-0.9-0.3-1.5-0.3c-0.3,0-0.6,0-0.9,0.1c-0.3,0.1-0.6,0.2-0.8,0.4s-0.3,0.5-0.3,0.8c0,0.3,0.1,0.5,0.2,0.7s0.4,0.3,0.7,0.4
		c0.3,0.1,0.7,0.2,1.2,0.4c0.7,0.2,1.3,0.4,1.8,0.6c0.5,0.2,0.9,0.5,1.2,0.8c0.3,0.3,0.4,0.8,0.4,1.3c0,0.9-0.3,1.6-1,2.1
		C44.5,143.8,43.6,144,42.5,144z"/>
	<path class="st1" d="M52.2,144c-0.7,0-1.3-0.1-1.9-0.4c-0.6-0.3-1.1-0.6-1.5-1.1c-0.4-0.5-0.8-1-1-1.5c-0.2-0.6-0.3-1.2-0.3-1.9
		c0-0.9,0.2-1.7,0.6-2.4c0.4-0.7,1-1.3,1.7-1.7c0.7-0.4,1.5-0.6,2.5-0.6c0.9,0,1.7,0.2,2.4,0.6c0.7,0.4,1.2,1,1.5,1.7l-1.5,0.5
		c-0.2-0.4-0.6-0.8-1-1c-0.4-0.2-0.9-0.4-1.4-0.4c-0.6,0-1.1,0.1-1.6,0.4c-0.5,0.3-0.8,0.7-1.1,1.2c-0.3,0.5-0.4,1.1-0.4,1.8
		c0,0.7,0.1,1.2,0.4,1.8c0.3,0.5,0.7,0.9,1.1,1.2s1,0.5,1.6,0.5c0.4,0,0.7-0.1,1.1-0.2c0.3-0.1,0.6-0.3,0.9-0.5
		c0.3-0.2,0.4-0.5,0.5-0.7l1.5,0.5c-0.2,0.5-0.5,0.9-0.9,1.2c-0.4,0.4-0.8,0.6-1.4,0.8C53.4,143.9,52.8,144,52.2,144z"/>
	<path class="st1" d="M62,144c-0.7,0-1.3-0.1-1.9-0.4s-1.1-0.6-1.5-1c-0.4-0.4-0.7-1-1-1.5c-0.2-0.6-0.3-1.2-0.3-1.8
		c0-0.7,0.1-1.3,0.3-1.9c0.2-0.6,0.5-1.1,1-1.5c0.4-0.4,0.9-0.8,1.5-1c0.6-0.3,1.2-0.4,1.9-0.4c0.7,0,1.3,0.1,1.9,0.4
		c0.6,0.3,1.1,0.6,1.5,1s0.8,1,1,1.5c0.2,0.6,0.3,1.2,0.3,1.9c0,0.6-0.1,1.3-0.3,1.8c-0.2,0.6-0.5,1.1-1,1.5c-0.4,0.4-0.9,0.8-1.5,1
		C63.3,143.9,62.7,144,62,144z M58.9,139.3c0,0.6,0.1,1.2,0.4,1.7c0.3,0.5,0.7,0.9,1.1,1.2c0.5,0.3,1,0.5,1.6,0.5s1.1-0.2,1.6-0.5
		c0.5-0.3,0.8-0.7,1.1-1.2c0.3-0.5,0.4-1.1,0.4-1.7s-0.1-1.2-0.4-1.7c-0.3-0.5-0.7-0.9-1.1-1.2c-0.5-0.3-1-0.5-1.6-0.5
		s-1.1,0.2-1.6,0.5s-0.8,0.7-1.1,1.2C59,138,58.9,138.6,58.9,139.3z"/>
	<path class="st1" d="M71,143.9l-3.7-9.3H69l2.9,7.8l2.9-7.8h1.5l-3.7,9.3H71z"/>
	<path class="st1" d="M81.8,144c-0.7,0-1.3-0.1-1.9-0.4c-0.6-0.3-1.1-0.6-1.5-1s-0.8-1-1-1.5c-0.2-0.6-0.3-1.2-0.3-1.9
		c0-0.9,0.2-1.7,0.6-2.4s1-1.3,1.7-1.7c0.7-0.4,1.6-0.7,2.5-0.7c0.9,0,1.8,0.2,2.5,0.7s1.2,1,1.6,1.7c0.4,0.7,0.6,1.5,0.6,2.3
		c0,0.1,0,0.2,0,0.3c0,0.1,0,0.2,0,0.3h-7.8c0,0.6,0.2,1.1,0.5,1.6c0.3,0.5,0.7,0.8,1.1,1.1s1,0.4,1.5,0.4c0.6,0,1.1-0.1,1.6-0.4
		c0.5-0.3,0.9-0.7,1-1.1l1.4,0.4c-0.2,0.5-0.5,0.9-0.9,1.2s-0.9,0.6-1.4,0.8C83,143.9,82.4,144,81.8,144z M78.6,138.7H85
		c0-0.6-0.2-1.1-0.5-1.6c-0.3-0.5-0.7-0.8-1.1-1.1s-1-0.4-1.5-0.4c-0.5,0-1.1,0.1-1.5,0.4s-0.8,0.6-1.1,1.1
		C78.8,137.5,78.7,138.1,78.6,138.7z"/>
	<path class="st1" d="M93.2,135.9c-0.8,0-1.5,0.2-2.1,0.6c-0.6,0.4-1,0.9-1.3,1.6v5.8h-1.6v-9.3h1.5v2.1c0.3-0.6,0.8-1.2,1.3-1.6
		c0.5-0.4,1.1-0.6,1.7-0.7c0.1,0,0.2,0,0.3,0c0.1,0,0.2,0,0.2,0V135.9z"/>
	<path class="st1" d="M98.1,141.2c0-0.6,0.2-1.1,0.5-1.5c0.3-0.4,0.8-0.8,1.4-1c0.6-0.2,1.3-0.4,2.1-0.4c0.4,0,0.9,0,1.3,0.1
		c0.5,0.1,0.9,0.2,1.2,0.3V138c0-0.7-0.2-1.3-0.6-1.7c-0.4-0.4-1-0.6-1.8-0.6c-0.5,0-1,0.1-1.5,0.3c-0.5,0.2-1,0.5-1.5,0.8l-0.6-1.1
		c0.6-0.4,1.2-0.7,1.8-0.9s1.2-0.3,1.9-0.3c1.2,0,2.1,0.3,2.8,1c0.7,0.7,1,1.6,1,2.7v3.9c0,0.2,0,0.3,0.1,0.4
		c0.1,0.1,0.2,0.1,0.4,0.2v1.2c-0.2,0-0.3,0-0.4,0.1s-0.2,0-0.3,0c-0.4,0-0.6-0.1-0.8-0.3c-0.2-0.2-0.3-0.4-0.3-0.6l0-0.6
		c-0.4,0.5-0.9,0.9-1.6,1.2s-1.3,0.4-2,0.4c-0.6,0-1.2-0.1-1.7-0.4c-0.5-0.3-0.9-0.6-1.1-1C98.2,142.2,98.1,141.7,98.1,141.2z
		 M104.2,141.8c0.1-0.2,0.3-0.3,0.3-0.5c0.1-0.2,0.1-0.3,0.1-0.4v-1.2c-0.4-0.1-0.8-0.3-1.2-0.3s-0.8-0.1-1.2-0.1
		c-0.8,0-1.4,0.2-1.9,0.5s-0.7,0.7-0.7,1.3c0,0.3,0.1,0.6,0.2,0.9s0.4,0.5,0.7,0.7s0.7,0.3,1.2,0.3c0.5,0,1-0.1,1.4-0.3
		C103.6,142.4,103.9,142.1,104.2,141.8z"/>
	<path class="st1" d="M108.2,139.2c0-0.9,0.2-1.7,0.5-2.4s0.9-1.3,1.5-1.8c0.6-0.4,1.4-0.7,2.2-0.7c0.8,0,1.4,0.2,2,0.6
		s1.1,0.9,1.4,1.4v-5.7h1.6v11.3c0,0.2,0,0.3,0.1,0.4s0.2,0.1,0.4,0.2v1.2c-0.3,0-0.5,0.1-0.7,0.1c-0.3,0-0.6-0.1-0.8-0.3
		c-0.2-0.2-0.3-0.5-0.3-0.7v-0.8c-0.4,0.6-0.9,1.1-1.5,1.4c-0.6,0.3-1.3,0.5-1.9,0.5c-0.6,0-1.2-0.1-1.8-0.4s-1-0.6-1.4-1.1
		c-0.4-0.5-0.7-1-0.9-1.5C108.3,140.5,108.2,139.9,108.2,139.2z M115.8,140.6v-2.7c-0.1-0.4-0.4-0.8-0.7-1.1
		c-0.3-0.3-0.7-0.6-1.1-0.8s-0.8-0.3-1.2-0.3c-0.5,0-0.9,0.1-1.3,0.3c-0.4,0.2-0.7,0.5-1,0.8c-0.3,0.3-0.5,0.7-0.6,1.1
		c-0.1,0.4-0.2,0.8-0.2,1.3c0,0.5,0.1,0.9,0.2,1.3s0.4,0.8,0.7,1.1c0.3,0.3,0.6,0.6,1,0.7c0.4,0.2,0.8,0.3,1.3,0.3
		c0.3,0,0.6-0.1,0.9-0.2s0.6-0.3,0.9-0.4c0.3-0.2,0.5-0.4,0.7-0.7C115.6,141.2,115.8,140.9,115.8,140.6z"/>
	<path class="st1" d="M119.4,139.2c0-0.9,0.2-1.7,0.5-2.4s0.9-1.3,1.5-1.8c0.6-0.4,1.4-0.7,2.2-0.7c0.8,0,1.4,0.2,2,0.6
		s1.1,0.9,1.4,1.4v-5.7h1.6v11.3c0,0.2,0,0.3,0.1,0.4s0.2,0.1,0.4,0.2v1.2c-0.3,0-0.5,0.1-0.7,0.1c-0.3,0-0.6-0.1-0.8-0.3
		c-0.2-0.2-0.3-0.5-0.3-0.7v-0.8c-0.4,0.6-0.9,1.1-1.5,1.4c-0.6,0.3-1.3,0.5-1.9,0.5c-0.6,0-1.2-0.1-1.8-0.4s-1-0.6-1.4-1.1
		c-0.4-0.5-0.7-1-0.9-1.5C119.5,140.5,119.4,139.9,119.4,139.2z M127.1,140.6v-2.7c-0.1-0.4-0.4-0.8-0.7-1.1
		c-0.3-0.3-0.7-0.6-1.1-0.8s-0.8-0.3-1.2-0.3c-0.5,0-0.9,0.1-1.3,0.3c-0.4,0.2-0.7,0.5-1,0.8c-0.3,0.3-0.5,0.7-0.6,1.1
		c-0.1,0.4-0.2,0.8-0.2,1.3c0,0.5,0.1,0.9,0.2,1.3s0.4,0.8,0.7,1.1c0.3,0.3,0.6,0.6,1,0.7c0.4,0.2,0.8,0.3,1.3,0.3
		c0.3,0,0.6-0.1,0.9-0.2s0.6-0.3,0.9-0.4s0.5-0.4,0.7-0.7C126.9,141.2,127,140.9,127.1,140.6z"/>
	<path class="st1" d="M131.3,132.7v-2h1.6v2H131.3z M131.3,143.9v-9.4h1.6v9.4H131.3z"/>
	<path class="st1" d="M140.3,143.4c-0.1,0.1-0.3,0.1-0.5,0.2c-0.2,0.1-0.5,0.2-0.8,0.3c-0.3,0.1-0.6,0.1-1,0.1
		c-0.4,0-0.7-0.1-1.1-0.2c-0.3-0.1-0.6-0.4-0.8-0.6s-0.3-0.7-0.3-1.1v-6.3h-1.3v-1.2h1.3v-3.1h1.6v3.1h2.1v1.2h-2.1v5.8
		c0,0.3,0.1,0.6,0.3,0.7s0.4,0.2,0.7,0.2c0.3,0,0.6-0.1,0.9-0.2c0.3-0.1,0.4-0.2,0.5-0.2L140.3,143.4z"/>
	<path class="st1" d="M141.7,132.7v-2h1.6v2H141.7z M141.7,143.9v-9.4h1.6v9.4H141.7z"/>
	<path class="st1" d="M150,144c-0.7,0-1.3-0.1-1.9-0.4c-0.6-0.3-1.1-0.6-1.5-1s-0.7-1-1-1.5c-0.2-0.6-0.3-1.2-0.3-1.8
		c0-0.7,0.1-1.3,0.3-1.9c0.2-0.6,0.6-1.1,1-1.5s0.9-0.8,1.5-1c0.6-0.3,1.2-0.4,1.9-0.4c0.7,0,1.3,0.1,1.9,0.4c0.6,0.3,1.1,0.6,1.5,1
		s0.8,1,1,1.5s0.3,1.2,0.3,1.9c0,0.6-0.1,1.3-0.3,1.8s-0.5,1.1-1,1.5c-0.4,0.4-0.9,0.8-1.5,1S150.7,144,150,144z M146.9,139.3
		c0,0.6,0.1,1.2,0.4,1.7c0.3,0.5,0.7,0.9,1.1,1.2c0.5,0.3,1,0.5,1.6,0.5c0.6,0,1.1-0.2,1.6-0.5c0.5-0.3,0.8-0.7,1.1-1.2
		s0.4-1.1,0.4-1.7s-0.1-1.2-0.4-1.7s-0.7-0.9-1.1-1.2c-0.5-0.3-1-0.5-1.6-0.5c-0.6,0-1.1,0.2-1.6,0.5c-0.5,0.3-0.8,0.7-1.1,1.2
		C147,138,146.9,138.6,146.9,139.3z"/>
	<path class="st1" d="M164.7,143.9h-1.6v-5.2c0-1-0.2-1.7-0.5-2.2s-0.8-0.7-1.4-0.7c-0.4,0-0.9,0.1-1.3,0.3
		c-0.4,0.2-0.8,0.5-1.1,0.9c-0.3,0.4-0.6,0.8-0.7,1.2v5.6h-1.6v-9.3h1.4v2c0.3-0.4,0.6-0.8,1-1.1s0.8-0.6,1.3-0.7s1-0.3,1.6-0.3
		c0.5,0,1,0.1,1.4,0.3c0.4,0.2,0.7,0.5,0.9,0.8s0.4,0.8,0.4,1.2s0.1,1,0.1,1.5V143.9z"/>
	<path class="st1" d="M166.4,141.2c0-0.6,0.2-1.1,0.5-1.5s0.8-0.8,1.4-1c0.6-0.2,1.3-0.4,2.1-0.4c0.4,0,0.9,0,1.3,0.1
		c0.5,0.1,0.9,0.2,1.2,0.3V138c0-0.7-0.2-1.3-0.6-1.7c-0.4-0.4-1-0.6-1.8-0.6c-0.5,0-1,0.1-1.5,0.3c-0.5,0.2-1,0.5-1.5,0.8l-0.6-1.1
		c0.6-0.4,1.2-0.7,1.8-0.9s1.2-0.3,1.9-0.3c1.2,0,2.1,0.3,2.8,1c0.7,0.7,1,1.6,1,2.7v3.9c0,0.2,0,0.3,0.1,0.4
		c0.1,0.1,0.2,0.1,0.4,0.2v1.2c-0.2,0-0.3,0-0.4,0.1s-0.2,0-0.3,0c-0.4,0-0.6-0.1-0.8-0.3c-0.2-0.2-0.3-0.4-0.3-0.6l0-0.6
		c-0.4,0.5-0.9,0.9-1.6,1.2c-0.7,0.3-1.3,0.4-2,0.4c-0.6,0-1.2-0.1-1.7-0.4c-0.5-0.3-0.9-0.6-1.1-1
		C166.6,142.2,166.4,141.7,166.4,141.2z M172.5,141.8c0.1-0.2,0.3-0.3,0.3-0.5c0.1-0.2,0.1-0.3,0.1-0.4v-1.2
		c-0.4-0.1-0.8-0.3-1.2-0.3s-0.8-0.1-1.2-0.1c-0.8,0-1.4,0.2-1.9,0.5s-0.7,0.7-0.7,1.3c0,0.3,0.1,0.6,0.2,0.9
		c0.2,0.3,0.4,0.5,0.7,0.7s0.7,0.3,1.2,0.3c0.5,0,1-0.1,1.4-0.3C171.9,142.4,172.3,142.1,172.5,141.8z"/>
	<path class="st1" d="M177.1,130.8h1.6v10.7c0,0.5,0.1,0.8,0.2,1c0.1,0.1,0.3,0.2,0.5,0.2c0.2,0,0.5,0,0.7-0.1s0.4-0.1,0.6-0.2
		l0.2,1.3c-0.3,0.1-0.6,0.2-0.9,0.3c-0.4,0.1-0.7,0.1-0.9,0.1c-0.6,0-1.1-0.2-1.4-0.5c-0.4-0.3-0.5-0.8-0.5-1.5V130.8z"/>
	<path class="st1" d="M197.5,134.6h1.5l-4,9.3h-1.4l-1.8-4.4l-1.8,4.4h-1.4l-4-9.3h1.5l3.2,7.8l1.5-3.8l-1.6-3.9h1.4l1.1,3l1.1-3
		h1.4l-1.6,3.9l1.5,3.8L197.5,134.6z"/>
	<path class="st1" d="M204.2,144c-0.7,0-1.3-0.1-1.9-0.4c-0.6-0.3-1.1-0.6-1.5-1s-0.7-1-1-1.5c-0.2-0.6-0.3-1.2-0.3-1.8
		c0-0.7,0.1-1.3,0.3-1.9c0.2-0.6,0.6-1.1,1-1.5s0.9-0.8,1.5-1c0.6-0.3,1.2-0.4,1.9-0.4c0.7,0,1.3,0.1,1.9,0.4c0.6,0.3,1.1,0.6,1.5,1
		s0.8,1,1,1.5s0.3,1.2,0.3,1.9c0,0.6-0.1,1.3-0.3,1.8s-0.5,1.1-1,1.5c-0.4,0.4-0.9,0.8-1.5,1S204.9,144,204.2,144z M201.1,139.3
		c0,0.6,0.1,1.2,0.4,1.7c0.3,0.5,0.7,0.9,1.1,1.2c0.5,0.3,1,0.5,1.6,0.5c0.6,0,1.1-0.2,1.6-0.5c0.5-0.3,0.8-0.7,1.1-1.2
		s0.4-1.1,0.4-1.7s-0.1-1.2-0.4-1.7s-0.7-0.9-1.1-1.2c-0.5-0.3-1-0.5-1.6-0.5c-0.6,0-1.1,0.2-1.6,0.5c-0.5,0.3-0.8,0.7-1.1,1.2
		C201.2,138,201.1,138.6,201.1,139.3z"/>
	<path class="st1" d="M215.8,135.9c-0.8,0-1.5,0.2-2.1,0.6c-0.6,0.4-1,0.9-1.3,1.6v5.8h-1.6v-9.3h1.5v2.1c0.3-0.6,0.8-1.2,1.3-1.6
		s1.1-0.6,1.7-0.7c0.1,0,0.2,0,0.3,0s0.2,0,0.2,0V135.9z"/>
	<path class="st1" d="M224,143.9l-3.2-4.5l-1.8,1.7v2.9h-1.6v-13.1h1.6v8.6l4.8-4.8h1.7l-3.7,3.9l3.9,5.4H224z"/>
	<path class="st1" d="M35.6,154.3v-2h1.6v2H35.6z M35.6,165.4V156h1.6v9.4H35.6z"/>
	<path class="st1" d="M47.8,165.4h-1.6v-5.2c0-1-0.2-1.7-0.5-2.2s-0.8-0.7-1.4-0.7c-0.4,0-0.9,0.1-1.3,0.3c-0.4,0.2-0.8,0.5-1.1,0.9
		c-0.3,0.4-0.6,0.8-0.7,1.2v5.6h-1.6v-9.3h1.4v2c0.3-0.4,0.6-0.8,1-1.1c0.4-0.3,0.8-0.6,1.3-0.7s1-0.3,1.6-0.3c0.5,0,1,0.1,1.4,0.3
		s0.7,0.5,0.9,0.8s0.4,0.8,0.4,1.2s0.1,1,0.1,1.5V165.4z"/>
	<path class="st1" d="M58,165.6c-0.8,0-1.5-0.1-2.2-0.4c-0.7-0.3-1.3-0.6-1.8-1.2l0.6-1.1c0.5,0.5,1.1,0.9,1.6,1.1
		c0.5,0.2,1.1,0.3,1.6,0.3c0.6,0,1.2-0.1,1.6-0.4c0.4-0.2,0.6-0.6,0.6-1.1c0-0.3-0.1-0.6-0.3-0.8s-0.5-0.3-0.9-0.4
		c-0.4-0.1-0.8-0.2-1.4-0.4c-0.6-0.2-1.2-0.4-1.6-0.6c-0.4-0.2-0.8-0.5-1-0.8c-0.2-0.3-0.3-0.7-0.3-1.2c0-0.6,0.2-1.1,0.5-1.5
		s0.7-0.7,1.3-0.9c0.5-0.2,1.2-0.3,1.9-0.3s1.3,0.1,1.9,0.3s1,0.5,1.5,1l-0.7,1.1c-0.4-0.4-0.8-0.7-1.2-0.9
		c-0.4-0.2-0.9-0.3-1.5-0.3c-0.3,0-0.6,0-0.9,0.1c-0.3,0.1-0.6,0.2-0.8,0.4s-0.3,0.5-0.3,0.8c0,0.3,0.1,0.5,0.2,0.7s0.4,0.3,0.7,0.4
		c0.3,0.1,0.7,0.2,1.2,0.4c0.7,0.2,1.3,0.4,1.8,0.6c0.5,0.2,0.9,0.5,1.2,0.8c0.3,0.3,0.4,0.8,0.4,1.3c0,0.9-0.3,1.6-1,2.1
		C60,165.3,59.1,165.6,58,165.6z"/>
	<path class="st1" d="M68.6,165.6c-0.8,0-1.4-0.2-2-0.6c-0.6-0.4-1.1-0.9-1.4-1.4v5.6h-1.6v-13.1H65v1.8c0.4-0.6,0.9-1,1.5-1.4
		s1.2-0.5,2-0.5c0.6,0,1.2,0.1,1.8,0.4c0.5,0.3,1,0.6,1.4,1.1c0.4,0.5,0.7,1,0.9,1.5c0.2,0.6,0.3,1.2,0.3,1.8c0,0.9-0.2,1.7-0.5,2.4
		s-0.8,1.3-1.5,1.8C70.2,165.3,69.4,165.6,68.6,165.6z M68.1,164.2c0.5,0,0.9-0.1,1.3-0.3s0.7-0.5,1-0.8s0.5-0.7,0.6-1.1
		c0.1-0.4,0.2-0.8,0.2-1.3c0-0.5-0.1-0.9-0.2-1.3s-0.4-0.8-0.7-1.1s-0.6-0.6-1-0.8s-0.8-0.3-1.3-0.3c-0.3,0-0.6,0.1-0.9,0.2
		c-0.3,0.1-0.6,0.3-0.9,0.5c-0.3,0.2-0.5,0.4-0.7,0.7c-0.2,0.2-0.3,0.5-0.4,0.8v2.7c0.2,0.4,0.4,0.8,0.7,1.1c0.3,0.3,0.6,0.6,1,0.8
		C67.3,164.1,67.7,164.2,68.1,164.2z"/>
	<path class="st1" d="M78.9,165.6c-0.7,0-1.3-0.1-1.9-0.4c-0.6-0.3-1.1-0.6-1.5-1s-0.8-1-1-1.5c-0.2-0.6-0.3-1.2-0.3-1.9
		c0-0.9,0.2-1.7,0.6-2.4s1-1.3,1.7-1.7c0.7-0.4,1.6-0.7,2.5-0.7c0.9,0,1.8,0.2,2.5,0.7s1.2,1,1.6,1.7c0.4,0.7,0.6,1.5,0.6,2.3
		c0,0.1,0,0.2,0,0.3c0,0.1,0,0.2,0,0.3h-7.8c0,0.6,0.2,1.1,0.5,1.6c0.3,0.5,0.7,0.8,1.1,1.1s1,0.4,1.5,0.4c0.6,0,1.1-0.1,1.6-0.4
		c0.5-0.3,0.9-0.7,1-1.1l1.4,0.4c-0.2,0.5-0.5,0.9-0.9,1.2s-0.9,0.6-1.4,0.8C80.1,165.4,79.5,165.6,78.9,165.6z M75.7,160.2h6.4
		c0-0.6-0.2-1.1-0.5-1.6c-0.3-0.5-0.7-0.8-1.1-1.1s-1-0.4-1.5-0.4c-0.5,0-1.1,0.1-1.5,0.4s-0.8,0.6-1.1,1.1
		C76,159,75.8,159.6,75.7,160.2z"/>
	<path class="st1" d="M89.5,165.6c-0.7,0-1.3-0.1-1.9-0.4c-0.6-0.3-1.1-0.6-1.5-1.1c-0.4-0.5-0.8-1-1-1.5c-0.2-0.6-0.3-1.2-0.3-1.9
		c0-0.9,0.2-1.7,0.6-2.4c0.4-0.7,1-1.3,1.7-1.7c0.7-0.4,1.5-0.6,2.5-0.6c0.9,0,1.7,0.2,2.4,0.6c0.7,0.4,1.2,1,1.5,1.7l-1.5,0.5
		c-0.2-0.4-0.6-0.8-1-1c-0.4-0.2-0.9-0.4-1.4-0.4c-0.6,0-1.1,0.1-1.6,0.4c-0.5,0.3-0.8,0.7-1.1,1.2c-0.3,0.5-0.4,1.1-0.4,1.8
		c0,0.7,0.1,1.2,0.4,1.8c0.3,0.5,0.7,0.9,1.1,1.2s1,0.5,1.6,0.5c0.4,0,0.7-0.1,1.1-0.2c0.3-0.1,0.6-0.3,0.9-0.5
		c0.3-0.2,0.4-0.5,0.5-0.7l1.5,0.5c-0.2,0.5-0.5,0.9-0.9,1.2c-0.4,0.4-0.8,0.6-1.4,0.8C90.7,165.4,90.1,165.6,89.5,165.6z"/>
	<path class="st1" d="M95.3,154.3v-2h1.6v2H95.3z M95.3,165.4V156h1.6v9.4H95.3z"/>
	<path class="st1" d="M99.9,157.3h-1.3V156h1.3v-0.2c0-0.5,0.1-0.9,0.2-1.4c0.1-0.4,0.4-0.8,0.6-1.2s0.6-0.6,1.1-0.9
		c0.4-0.2,0.9-0.3,1.5-0.3c0.4,0,0.8,0,1.2,0.1c0.4,0.1,0.7,0.2,1,0.4s0.5,0.3,0.7,0.4l-0.7,1.2c-0.2-0.2-0.5-0.4-0.9-0.5
		c-0.4-0.1-0.8-0.2-1.2-0.2c-0.5,0-0.8,0.1-1.1,0.3c-0.3,0.2-0.5,0.5-0.6,0.9s-0.2,0.7-0.2,1.1v0.3h4.8v9.4h-1.6v-8.1h-3.2v8.1h-1.6
		V157.3z"/>
	<path class="st1" d="M112.9,165.6c-0.7,0-1.3-0.1-1.9-0.4c-0.6-0.3-1.1-0.6-1.5-1.1c-0.4-0.5-0.8-1-1-1.5c-0.2-0.6-0.3-1.2-0.3-1.9
		c0-0.9,0.2-1.7,0.6-2.4c0.4-0.7,1-1.3,1.7-1.7c0.7-0.4,1.5-0.6,2.5-0.6c0.9,0,1.7,0.2,2.4,0.6c0.7,0.4,1.2,1,1.5,1.7l-1.5,0.5
		c-0.2-0.4-0.6-0.8-1-1c-0.4-0.2-0.9-0.4-1.4-0.4c-0.6,0-1.1,0.1-1.6,0.4c-0.5,0.3-0.8,0.7-1.1,1.2c-0.3,0.5-0.4,1.1-0.4,1.8
		c0,0.7,0.1,1.2,0.4,1.8c0.3,0.5,0.7,0.9,1.1,1.2s1,0.5,1.6,0.5c0.4,0,0.7-0.1,1.1-0.2c0.3-0.1,0.6-0.3,0.9-0.5
		c0.3-0.2,0.4-0.5,0.5-0.7l1.5,0.5c-0.2,0.5-0.5,0.9-0.9,1.2c-0.4,0.4-0.8,0.6-1.4,0.8C114.2,165.4,113.6,165.6,112.9,165.6z"/>
	<path class="st1" d="M127.4,165.6c-0.7,0-1.3-0.1-1.9-0.4s-1.1-0.6-1.5-1.1c-0.4-0.5-0.8-1-1-1.5c-0.2-0.6-0.3-1.2-0.3-1.9
		c0-0.9,0.2-1.7,0.6-2.4c0.4-0.7,1-1.3,1.7-1.7c0.7-0.4,1.5-0.6,2.5-0.6c0.9,0,1.7,0.2,2.4,0.6c0.7,0.4,1.2,1,1.5,1.7l-1.5,0.5
		c-0.2-0.4-0.6-0.8-1-1c-0.4-0.2-0.9-0.4-1.4-0.4c-0.6,0-1.1,0.1-1.6,0.4c-0.5,0.3-0.8,0.7-1.1,1.2c-0.3,0.5-0.4,1.1-0.4,1.8
		c0,0.7,0.1,1.2,0.4,1.8s0.7,0.9,1.1,1.2c0.5,0.3,1,0.5,1.6,0.5c0.4,0,0.7-0.1,1.1-0.2c0.3-0.1,0.6-0.3,0.9-0.5
		c0.3-0.2,0.4-0.5,0.5-0.7l1.5,0.5c-0.2,0.5-0.5,0.9-0.9,1.2s-0.8,0.6-1.4,0.8C128.6,165.4,128,165.6,127.4,165.6z"/>
	<path class="st1" d="M132.5,162.7c0-0.6,0.2-1.1,0.5-1.5s0.8-0.8,1.4-1c0.6-0.2,1.3-0.4,2.1-0.4c0.4,0,0.9,0,1.3,0.1
		c0.5,0.1,0.9,0.2,1.2,0.3v-0.7c0-0.7-0.2-1.3-0.6-1.7c-0.4-0.4-1-0.6-1.8-0.6c-0.5,0-1,0.1-1.5,0.3c-0.5,0.2-1,0.5-1.5,0.8
		l-0.6-1.1c0.6-0.4,1.2-0.7,1.8-0.9s1.2-0.3,1.9-0.3c1.2,0,2.1,0.3,2.8,1c0.7,0.7,1,1.6,1,2.7v3.9c0,0.2,0,0.3,0.1,0.4
		c0.1,0.1,0.2,0.1,0.4,0.2v1.2c-0.2,0-0.3,0-0.4,0.1s-0.2,0-0.3,0c-0.4,0-0.6-0.1-0.8-0.3c-0.2-0.2-0.3-0.4-0.3-0.6l0-0.6
		c-0.4,0.5-0.9,0.9-1.6,1.2c-0.7,0.3-1.3,0.4-2,0.4c-0.6,0-1.2-0.1-1.7-0.4c-0.5-0.3-0.9-0.6-1.1-1
		C132.6,163.7,132.5,163.2,132.5,162.7z M138.6,163.3c0.1-0.2,0.3-0.3,0.3-0.5c0.1-0.2,0.1-0.3,0.1-0.4v-1.2
		c-0.4-0.1-0.8-0.3-1.2-0.3s-0.8-0.1-1.2-0.1c-0.8,0-1.4,0.2-1.9,0.5s-0.7,0.7-0.7,1.3c0,0.3,0.1,0.6,0.2,0.9
		c0.2,0.3,0.4,0.5,0.7,0.7s0.7,0.3,1.2,0.3c0.5,0,1-0.1,1.4-0.3C137.9,163.9,138.3,163.6,138.6,163.3z"/>
	<path class="st1" d="M147.9,165c-0.1,0.1-0.3,0.1-0.5,0.2c-0.2,0.1-0.5,0.2-0.8,0.3c-0.3,0.1-0.6,0.1-1,0.1c-0.4,0-0.7-0.1-1.1-0.2
		c-0.3-0.1-0.6-0.4-0.8-0.6s-0.3-0.7-0.3-1.1v-6.3h-1.3v-1.2h1.3v-3.1h1.6v3.1h2.1v1.2h-2.1v5.8c0,0.3,0.1,0.6,0.3,0.7
		s0.4,0.2,0.7,0.2c0.3,0,0.6-0.1,0.9-0.2c0.3-0.1,0.4-0.2,0.5-0.2L147.9,165z"/>
	<path class="st1" d="M153.4,165.6c-0.7,0-1.3-0.1-1.9-0.4s-1.1-0.6-1.5-1s-0.8-1-1-1.5c-0.2-0.6-0.3-1.2-0.3-1.9
		c0-0.9,0.2-1.7,0.6-2.4s1-1.3,1.7-1.7c0.7-0.4,1.6-0.7,2.5-0.7c0.9,0,1.8,0.2,2.5,0.7s1.2,1,1.6,1.7c0.4,0.7,0.6,1.5,0.6,2.3
		c0,0.1,0,0.2,0,0.3c0,0.1,0,0.2,0,0.3h-7.8c0,0.6,0.2,1.1,0.5,1.6c0.3,0.5,0.7,0.8,1.1,1.1c0.5,0.3,1,0.4,1.5,0.4
		c0.6,0,1.1-0.1,1.6-0.4c0.5-0.3,0.9-0.7,1-1.1l1.4,0.4c-0.2,0.5-0.5,0.9-0.9,1.2s-0.9,0.6-1.4,0.8
		C154.6,165.4,154,165.6,153.4,165.6z M150.2,160.2h6.4c0-0.6-0.2-1.1-0.5-1.6c-0.3-0.5-0.7-0.8-1.1-1.1c-0.5-0.3-1-0.4-1.5-0.4
		c-0.6,0-1.1,0.1-1.5,0.4c-0.5,0.3-0.8,0.6-1.1,1.1C150.4,159,150.3,159.6,150.2,160.2z"/>
	<path class="st1" d="M163.6,165.6c-0.6,0-1.2-0.1-1.7-0.4c-0.5-0.3-1-0.6-1.4-1.1s-0.7-1-0.9-1.5c-0.2-0.6-0.3-1.2-0.3-1.8
		c0-0.7,0.1-1.3,0.3-1.9c0.2-0.6,0.5-1.1,0.9-1.6s0.8-0.8,1.4-1.1s1.1-0.4,1.8-0.4c0.8,0,1.5,0.2,2,0.6c0.6,0.4,1.1,0.9,1.5,1.4
		v-1.9h1.4v9.2c0,0.9-0.2,1.6-0.6,2.2c-0.4,0.6-1,1.1-1.7,1.4c-0.7,0.3-1.5,0.5-2.4,0.5c-1.1,0-1.9-0.2-2.6-0.6s-1.2-0.9-1.7-1.5
		l0.9-0.8c0.4,0.5,0.9,1,1.4,1.2c0.6,0.3,1.2,0.4,1.9,0.4c0.6,0,1.1-0.1,1.6-0.3s0.9-0.5,1.2-0.9c0.3-0.4,0.4-0.9,0.4-1.6v-1.6
		c-0.3,0.6-0.8,1-1.4,1.4C164.9,165.4,164.2,165.6,163.6,165.6z M164,164.3c0.3,0,0.7-0.1,1-0.2c0.3-0.1,0.6-0.3,0.9-0.5
		c0.3-0.2,0.5-0.4,0.7-0.7c0.2-0.3,0.3-0.5,0.4-0.8v-2.7c-0.2-0.4-0.4-0.8-0.7-1.1c-0.3-0.3-0.7-0.6-1.1-0.8
		c-0.4-0.2-0.8-0.3-1.2-0.3c-0.5,0-0.9,0.1-1.3,0.3c-0.4,0.2-0.7,0.5-1,0.8c-0.3,0.3-0.5,0.7-0.6,1.1c-0.1,0.4-0.2,0.8-0.2,1.3
		c0,0.5,0.1,0.9,0.3,1.3c0.2,0.4,0.4,0.8,0.7,1.1c0.3,0.3,0.6,0.6,1,0.8C163.2,164.2,163.6,164.3,164,164.3z"/>
	<path class="st1" d="M175.1,165.6c-0.7,0-1.3-0.1-1.9-0.4c-0.6-0.3-1.1-0.6-1.5-1c-0.4-0.4-0.7-1-1-1.5s-0.3-1.2-0.3-1.8
		c0-0.7,0.1-1.3,0.3-1.9s0.5-1.1,1-1.5c0.4-0.4,0.9-0.8,1.5-1s1.2-0.4,1.9-0.4c0.7,0,1.3,0.1,1.9,0.4s1.1,0.6,1.5,1s0.8,1,1,1.5
		c0.2,0.6,0.3,1.2,0.3,1.9c0,0.6-0.1,1.3-0.3,1.8c-0.2,0.6-0.6,1.1-1,1.5s-0.9,0.8-1.5,1C176.4,165.4,175.8,165.6,175.1,165.6z
		 M172,160.8c0,0.6,0.1,1.2,0.4,1.7s0.7,0.9,1.1,1.2c0.5,0.3,1,0.5,1.6,0.5c0.6,0,1.1-0.2,1.6-0.5s0.8-0.7,1.1-1.2
		c0.3-0.5,0.4-1.1,0.4-1.7s-0.1-1.2-0.4-1.7c-0.3-0.5-0.7-0.9-1.1-1.2s-1-0.5-1.6-0.5c-0.6,0-1.1,0.2-1.6,0.5
		c-0.5,0.3-0.8,0.7-1.1,1.2S172,160.1,172,160.8z"/>
	<path class="st1" d="M186.7,157.4c-0.8,0-1.5,0.2-2.1,0.6c-0.6,0.4-1,0.9-1.3,1.6v5.8h-1.6v-9.3h1.5v2.1c0.3-0.6,0.8-1.2,1.3-1.6
		c0.5-0.4,1.1-0.6,1.7-0.7c0.1,0,0.2,0,0.3,0c0.1,0,0.2,0,0.2,0V157.4z"/>
	<path class="st1" d="M188.3,154.3v-2h1.6v2H188.3z M188.3,165.4V156h1.6v9.4H188.3z"/>
	<path class="st1" d="M196.5,165.6c-0.7,0-1.3-0.1-1.9-0.4s-1.1-0.6-1.5-1s-0.8-1-1-1.5c-0.2-0.6-0.3-1.2-0.3-1.9
		c0-0.9,0.2-1.7,0.6-2.4s1-1.3,1.7-1.7c0.7-0.4,1.6-0.7,2.5-0.7c0.9,0,1.8,0.2,2.5,0.7s1.2,1,1.6,1.7c0.4,0.7,0.6,1.5,0.6,2.3
		c0,0.1,0,0.2,0,0.3c0,0.1,0,0.2,0,0.3h-7.8c0,0.6,0.2,1.1,0.5,1.6c0.3,0.5,0.7,0.8,1.1,1.1c0.5,0.3,1,0.4,1.5,0.4
		c0.6,0,1.1-0.1,1.6-0.4c0.5-0.3,0.9-0.7,1-1.1l1.4,0.4c-0.2,0.5-0.5,0.9-0.9,1.2s-0.9,0.6-1.4,0.8
		C197.7,165.4,197.2,165.6,196.5,165.6z M193.4,160.2h6.4c0-0.6-0.2-1.1-0.5-1.6c-0.3-0.5-0.7-0.8-1.1-1.1c-0.5-0.3-1-0.4-1.5-0.4
		c-0.6,0-1.1,0.1-1.5,0.4c-0.5,0.3-0.8,0.6-1.1,1.1C193.6,159,193.4,159.6,193.4,160.2z"/>
	<path class="st1" d="M206.2,165.6c-0.8,0-1.5-0.1-2.2-0.4c-0.7-0.3-1.3-0.6-1.8-1.2l0.6-1.1c0.5,0.5,1.1,0.9,1.6,1.1
		c0.5,0.2,1.1,0.3,1.6,0.3c0.6,0,1.2-0.1,1.6-0.4c0.4-0.2,0.6-0.6,0.6-1.1c0-0.3-0.1-0.6-0.3-0.8s-0.5-0.3-0.9-0.4s-0.8-0.2-1.4-0.4
		c-0.6-0.2-1.2-0.4-1.6-0.6c-0.4-0.2-0.8-0.5-1-0.8c-0.2-0.3-0.3-0.7-0.3-1.2c0-0.6,0.2-1.1,0.5-1.5s0.7-0.7,1.3-0.9
		c0.5-0.2,1.2-0.3,1.9-0.3s1.3,0.1,1.9,0.3c0.6,0.2,1,0.5,1.5,1l-0.7,1.1c-0.4-0.4-0.8-0.7-1.2-0.9c-0.4-0.2-0.9-0.3-1.5-0.3
		c-0.3,0-0.6,0-0.9,0.1c-0.3,0.1-0.6,0.2-0.8,0.4s-0.3,0.5-0.3,0.8c0,0.3,0.1,0.5,0.2,0.7c0.2,0.2,0.4,0.3,0.7,0.4
		c0.3,0.1,0.7,0.2,1.2,0.4c0.7,0.2,1.3,0.4,1.8,0.6c0.5,0.2,0.9,0.5,1.2,0.8c0.3,0.3,0.4,0.8,0.4,1.3c0,0.9-0.3,1.6-1,2.1
		C208.2,165.3,207.3,165.6,206.2,165.6z"/>
	<path class="st1" d="M211.6,165.4v-2h1.3v2H211.6z"/>
</g>
</svg>
